<svg viewBox="335 264.331 380 184.198" width="5000" height="2423.657894736842" xmlns="http://www.w3.org/2000/svg" xmlns:xlink="http://www.w3.org/1999/xlink" preserveAspectRatio="none"><defs></defs><style>.aD6z1nYkhcolor {fill:#FFF;fill-opacity:1;}.aD6z1nYkhstrokeColor-str {stroke:#868686;stroke-opacity:1;}.aEiCqXr4GfillColor {fill:#FFF;fill-opacity:1;}.aEiCqXr4GstrokeColor-str {stroke:#26374D;stroke-opacity:1;}</style><defs>
      <filter
        x="-1000"
        y="-1000"
        width="5000"
        height="5000"
        id="global"
        filterUnits="userSpaceOnUse"
        primitiveUnits="userSpaceOnUse"
        color-interpolation-filters="sRGB">
        <feColorMatrix
                        type="matrix"
                        values="0.3333 0.3333 0.3333 0 0 0.3333 0.3333 0.3333 0 0 0.3333 0.3333 0.3333 0 0 0 0 0 1 0"/><feColorMatrix
                        type="matrix"
                        values="-1 0 0 0 1 0 -1 0 0 1 0 0 -1 0 1 0 0 0 1 0"/>
      </filter></defs><g filter="url(#global)"><g opacity="1" transform="rotate(0 335 264.331)">
<svg width="7.368" height="184.198" x="335" y="264.331" version="1.1" preserveAspectRatio="none" viewBox="0 0 7.368 184.198">
  <rect x="0" y="0" width="7.368" height="184.198" class="aEiCqXr4GfillColor aEiCqXr4GstrokeColor-str" style="stroke-width:0;" rx="0%" ry="0%" />
</svg>
</g><g opacity="1" transform="rotate(0 374.2956 282.7508)">
<svg width="340.7044" height="147.3584" x="374.2956" y="282.7508" version="1.1" preserveAspectRatio="none" viewBox="1.96 -26.4 172.48 74.6">
  <g transform="matrix(1 0 0 1 0 0)" class="aD6z1nYkhcolor"><path id="id-D6z1nYkh10" d="M11.28 0L1.96 0L1.96-0.64L5.28-2.28L6.12-24.12L2.64-25.76L2.64-26.40L11.52-26.40L20.04-6.64L28.52-26.40L37.04-26.40L37.04-25.76L33.64-24.40L34.32-2.28L37.24-0.64L37.24 0L26.32 0L26.32-0.64L29.44-2.24L29.04-21.52L19.76 0.20L17.68 0.20L8.40-21.32L7.88-2.24L11.28-0.64L11.28 0Z M60.68 0L41.28 0L41.28-0.64L44.20-1.96L44.20-20.44L41.28-21.76L41.28-22.40L59.68-22.40L59.68-16.52L59.04-16.52L56.72-20.36L49.04-20.36L49.04-12.56L54.56-12.56L56.16-15.36L56.76-15.36L56.76-7.84L56.16-7.84L54.56-10.64L49.04-10.64L49.04-2.04L57.60-2.04L60.04-6.84L60.68-6.84L60.68 0Z M84.16 0L65.12 0L65.12-0.64L68.04-1.96L68.04-20.44L65.12-21.76L65.12-22.40L76.16-22.40L76.16-21.76L72.88-20.44L72.88-2.04L80.80-2.04L83.52-8.20L84.16-8.20L84.16 0Z M107.68 0L88.64 0L88.64-0.64L91.56-1.96L91.56-20.44L88.64-21.76L88.64-22.40L99.68-22.40L99.68-21.76L96.40-20.44L96.40-2.04L104.32-2.04L107.04-8.20L107.68-8.20L107.68 0Z M124.16 0.40L124.16 0.40Q120.76 0.40 118.10-1.10Q115.44-2.60 113.92-5.22Q112.40-7.84 112.40-11.20L112.40-11.20Q112.40-14.56 113.92-17.20Q115.44-19.84 118.10-21.34Q120.76-22.84 124.16-22.84L124.16-22.84Q127.60-22.84 130.26-21.34Q132.92-19.84 134.46-17.20Q136-14.56 136-11.20L136-11.20Q136-7.84 134.46-5.22Q132.92-2.60 130.26-1.10Q127.60 0.40 124.16 0.40ZM124.76-1.64L124.76-1.64Q127.68-1.64 129.36-4.02Q131.04-6.40 131.04-10.20L131.04-10.20Q131.04-13.36 130.10-15.74Q129.16-18.12 127.50-19.48Q125.84-20.84 123.72-20.84L123.72-20.84Q120.80-20.84 119.08-18.46Q117.36-16.08 117.36-12.32L117.36-12.32Q117.36-9.20 118.30-6.78Q119.24-4.36 120.90-3Q122.56-1.64 124.76-1.64Z M150.44 0.16L148.04 0.16L141.52-20.44L138.84-21.76L138.84-22.40L149.52-22.40L149.52-21.76L146.56-20.56L150.64-6.96L150.88-6.96L157.12-22.52L159.40-22.52L165.40-6.96L165.60-6.96L169.52-20.52L166.56-21.76L166.56-22.40L174.44-22.40L174.44-21.76L172.08-20.60L165.60 0.16L163.16 0.16L156.92-15.60L156.68-15.60L150.44 0.16Z M11.28 48L1.96 48L1.96 47.36L5.28 45.72L6.12 23.88L2.64 22.24L2.64 21.60L11.52 21.60L20.04 41.36L28.52 21.60L37.04 21.60L37.04 22.24L33.64 23.60L34.32 45.72L37.24 47.36L37.24 48L26.32 48L26.32 47.36L29.44 45.76L29.04 26.48L19.76 48.20L17.68 48.20L8.40 26.68L7.88 45.76L11.28 47.36L11.28 48Z M51.72 48L41.44 48L41.44 47.36L44.08 46.04L44.08 27.56L41.44 26.24L41.44 25.60L51.72 25.60L51.72 26.24L48.92 27.56L48.92 46.04L51.72 47.36L51.72 48Z M64.88 48L55.92 48L55.92 47.36L58.84 46.04L58.84 27.52L55.92 26.24L55.92 25.60L62.52 25.60L75.92 41.04L75.92 27.52L72.24 26.24L72.24 25.60L81.12 25.60L81.12 26.24L78.28 27.52L78.28 48.16L75.96 48.16L61.20 31.28L61.20 45.96L64.88 47.36L64.88 48Z M101.64 48L89.52 48L89.52 47.36L93.16 46.04L93.16 27.64L87.68 27.64L85.32 32.80L84.68 32.80L84.68 25.60L106.48 25.60L106.48 32.80L105.84 32.80L103.40 27.64L97.96 27.64L97.96 46.04L101.64 47.36L101.64 48Z"/></g>
</svg>
</g></g></svg>