<?xml version="1.0" standalone="no"?>
<!DOCTYPE svg PUBLIC "-//W3C//DTD SVG 20010904//EN"
 "http://www.w3.org/TR/2001/REC-SVG-20010904/DTD/svg10.dtd">
<svg version="1.0" xmlns="http://www.w3.org/2000/svg"
 width="1080.000000pt" height="1080.000000pt" viewBox="0 0 1080.000000 1080.000000"
 preserveAspectRatio="xMidYMid meet">

<g transform="translate(0.000000,1080.000000) scale(0.100000,-0.100000)"
fill="#000000" stroke="none">
<path d="M6203 8990 c-18 -10 -43 -37 -57 -58 -35 -56 -132 -251 -182 -367
l-43 -100 -178 -7 c-98 -3 -221 -13 -273 -22 -52 -9 -114 -16 -137 -16 -46 0
-48 2 -120 120 -47 79 -189 261 -275 353 -70 75 -104 91 -158 73 -30 -9 -41
-22 -76 -94 -73 -145 -171 -424 -194 -547 -16 -87 -27 -110 -105 -210 -73 -95
-220 -309 -260 -380 -34 -60 -40 -65 -85 -65 -68 -1 -193 -29 -247 -56 -68
-33 -113 -96 -113 -159 0 -90 53 -99 75 -13 25 99 79 137 207 146 l79 5 -11
-29 c-6 -16 -38 -79 -70 -140 -94 -174 -196 -451 -261 -703 -19 -72 -29 -92
-69 -136 -52 -57 -107 -189 -117 -280 -3 -27 -9 -55 -14 -60 -12 -16 -113
-269 -148 -370 -64 -188 -168 -654 -210 -945 -24 -157 -51 -455 -51 -552 l0
-68 38 0 39 0 6 145 c17 364 110 908 223 1300 36 123 153 451 170 474 6 7 45
-27 76 -67 37 -46 201 -194 341 -306 217 -174 437 -290 732 -387 105 -34 194
-66 199 -71 6 -4 -8 -8 -32 -8 -30 0 -48 -6 -63 -21 l-22 -22 24 -12 c17 -9
122 -15 349 -19 714 -15 1020 -56 1249 -169 120 -60 211 -163 211 -239 0 -92
-59 -139 -270 -213 -246 -86 -523 -131 -1045 -170 -115 -9 -259 -22 -320 -30
-271 -34 -394 -30 -500 19 -54 25 -199 137 -208 161 -7 17 -85 75 -101 75 -22
0 -37 -17 -30 -33 8 -23 209 -198 271 -237 109 -70 277 -88 493 -55 52 8 241
26 420 40 626 49 890 94 1118 193 144 63 205 114 231 195 32 96 -37 216 -182
317 -80 57 -142 82 -270 110 -51 12 -117 28 -147 36 -70 21 -55 27 95 44 207
23 361 65 491 136 45 24 84 44 87 44 3 0 11 -26 17 -57 16 -78 72 -221 122
-311 64 -117 133 -200 319 -390 96 -98 230 -244 298 -325 120 -142 125 -147
163 -147 21 0 38 3 38 8 0 25 -214 281 -289 346 -91 79 -371 375 -371 392 0
29 111 133 176 165 62 31 131 46 504 114 333 60 591 125 696 176 77 36 141 99
150 146 17 89 -65 197 -200 263 -110 55 -206 77 -386 89 -237 17 -357 14 -612
-16 -131 -15 -240 -24 -243 -21 -8 8 14 50 79 151 109 167 199 383 241 577 23
104 31 351 15 443 -11 69 -11 77 13 153 14 44 31 118 37 165 19 138 -7 326
-48 348 -12 6 -56 6 -123 -1 -137 -15 -170 -8 -202 40 -38 59 -182 196 -285
274 -50 38 -103 84 -116 101 -14 18 -57 111 -96 207 -137 337 -256 520 -366
566 -45 19 -73 18 -111 -6z m122 -68 c37 -23 144 -172 192 -267 19 -38 69
-155 110 -260 41 -104 81 -200 89 -212 8 -13 49 -47 92 -77 95 -67 302 -263
302 -287 0 -15 -24 -17 -267 -23 -634 -14 -1294 -39 -2122 -82 -271 -14 -495
-23 -498 -20 -2 2 3 19 13 38 17 34 194 297 284 423 42 59 52 82 65 149 14 78
90 308 163 501 l38 100 35 -3 c25 -1 41 -11 59 -34 14 -18 38 -44 53 -59 15
-14 38 -39 50 -56 12 -17 50 -67 85 -112 34 -44 92 -128 128 -186 77 -124 49
-116 304 -85 292 35 482 23 768 -51 86 -22 173 -38 192 -37 32 3 35 6 38 39 4
42 -45 201 -93 306 -70 152 -135 118 -232 -122 l-32 -80 -38 3 c-50 4 -113 21
-113 30 0 4 29 68 64 142 35 74 81 172 102 218 54 119 99 146 169 104z m16
-303 c22 -45 71 -189 76 -227 5 -40 4 -44 -13 -39 -10 4 -58 16 -106 28 -49
12 -88 25 -88 29 0 28 67 186 93 218 12 15 28 11 38 -9z m93 -921 c30 -173 38
-199 90 -303 127 -254 270 -347 536 -348 118 -1 176 13 292 68 l73 35 9 -77
c11 -102 -7 -303 -39 -430 -67 -261 -194 -498 -421 -780 -170 -211 -226 -252
-406 -297 -364 -93 -954 -34 -1477 146 -482 166 -884 380 -1254 666 -98 76
-106 86 -101 110 70 318 210 710 346 970 65 125 83 152 101 152 33 0 542 29
623 35 l72 6 12 -83 c17 -116 63 -254 108 -324 86 -132 235 -234 367 -252 217
-29 492 66 628 218 89 99 115 171 128 349 5 74 11 136 13 138 4 4 178 19 253
22 37 1 43 -2 47 -21z m-2662 -1354 c473 -391 1100 -679 1795 -824 217 -45
376 -62 578 -62 178 0 201 -6 95 -27 -116 -23 -285 -33 -540 -33 -288 -1 -459
16 -697 67 -244 53 -547 173 -742 294 -46 28 -159 111 -250 184 -249 197 -391
347 -391 412 0 31 23 75 40 75 5 0 55 -38 112 -86z m4411 -414 c172 -37 287
-97 332 -175 71 -120 -7 -183 -330 -265 -82 -21 -242 -54 -355 -74 -569 -102
-610 -115 -727 -231 -36 -36 -69 -62 -74 -59 -15 9 -126 236 -147 300 -11 33
-23 84 -26 114 l-7 55 70 57 c69 56 158 155 193 214 18 31 19 31 181 53 258
35 338 40 572 36 175 -3 240 -8 318 -25z"/>
<path d="M4872 8695 c-32 -69 -82 -339 -82 -439 0 -26 5 -56 11 -67 12 -24 23
-23 189 28 150 45 165 51 186 74 21 23 6 46 -33 51 -20 2 -36 22 -80 98 -30
52 -72 117 -95 143 -38 45 -40 51 -33 93 6 43 6 44 -23 44 -21 0 -32 -7 -40
-25z m133 -290 c36 -70 37 -77 22 -92 -9 -9 -47 -24 -84 -34 l-68 -17 -3 36
c-4 46 16 200 30 226 11 19 12 19 37 -11 15 -18 44 -66 66 -108z"/>
<path d="M6466 7302 c-3 -5 2 -39 11 -76 8 -37 13 -70 10 -73 -12 -12 -48 10
-67 43 -30 47 -48 64 -70 64 -14 0 -19 -11 -25 -57 -8 -75 -24 -133 -34 -133
-5 0 -20 9 -35 21 -24 19 -26 26 -26 104 0 70 -3 84 -17 90 -27 10 -53 -29
-53 -79 0 -100 62 -206 121 -206 20 0 67 42 101 91 16 24 17 24 46 7 40 -24
77 -23 103 3 19 19 21 30 17 84 -6 69 -33 125 -60 125 -9 0 -19 -4 -22 -8z"/>
<path d="M6223 3856 c-195 -45 -343 -204 -390 -416 -21 -98 -21 -308 1 -410
58 -270 257 -430 536 -430 167 0 289 47 390 149 122 124 164 250 164 491 0
133 -3 167 -23 237 -51 182 -166 308 -331 363 -84 28 -258 36 -347 16z m274
-342 c62 -50 86 -124 87 -264 1 -179 -36 -269 -129 -311 -85 -39 -186 -13
-237 60 -43 61 -61 148 -56 271 3 80 10 117 27 155 44 98 89 127 198 122 63
-2 76 -6 110 -33z"/>
<path d="M1900 3235 l0 -615 163 2 162 3 3 238 2 237 160 0 160 0 0 -240 0
-240 165 0 165 0 0 615 0 615 -165 0 -165 0 0 -210 0 -210 -160 0 -160 0 -2
208 -3 207 -162 3 -163 2 0 -615z"/>
<path d="M2990 3235 l0 -615 165 0 165 0 0 615 0 615 -165 0 -165 0 0 -615z"/>
<path d="M8090 3235 l0 -617 288 4 c260 4 293 6 352 26 167 55 280 191 324
389 21 92 21 303 1 398 -31 144 -121 282 -223 342 -100 59 -143 65 -454 71
l-288 4 0 -617z m530 283 c87 -44 114 -125 108 -322 -3 -105 -6 -128 -28 -170
-33 -66 -70 -84 -188 -92 l-92 -7 0 307 0 306 78 0 c61 0 87 -5 122 -22z"/>
<path d="M3450 3230 l0 -610 160 0 160 0 0 203 0 203 153 11 c206 16 283 46
350 139 58 80 72 133 72 274 0 115 -2 130 -27 183 -57 121 -123 174 -243 196
-33 6 -180 11 -342 11 l-283 0 0 -610z m504 306 c65 -27 84 -91 46 -153 -23
-38 -67 -53 -157 -53 l-63 0 0 110 0 110 70 0 c39 0 86 -6 104 -14z"/>
<path d="M4330 3837 c0 -5 217 -1057 236 -1144 l16 -73 162 0 163 0 88 345
c48 190 89 344 91 342 1 -1 37 -140 79 -307 42 -168 80 -322 86 -343 l10 -37
162 2 162 3 77 370 c43 204 99 477 126 608 l50 237 -162 0 -161 0 -49 -283
c-27 -155 -52 -290 -56 -300 -3 -10 -33 96 -70 250 -35 147 -67 283 -72 301
l-9 32 -169 0 -169 0 -10 -37 c-5 -21 -40 -155 -76 -298 -37 -143 -68 -261
-69 -262 -2 -2 -27 132 -57 297 l-54 300 -162 0 c-90 0 -163 -2 -163 -3z"/>
<path d="M7020 3235 l0 -605 160 0 160 0 0 225 0 225 32 0 c52 0 101 -64 211
-273 l99 -187 189 0 c104 0 189 2 189 6 0 3 -45 95 -101 205 -62 124 -119 221
-149 258 l-48 58 33 17 c55 30 116 96 143 155 34 74 42 210 18 295 -23 77 -86
153 -161 191 l-59 30 -358 3 -358 3 0 -606z m575 303 c35 -16 52 -75 34 -114
-22 -44 -52 -54 -176 -54 l-113 0 0 90 0 90 115 0 c65 0 125 -5 140 -12z"/>
</g>
</svg>
